<?xml version="1.0" encoding="UTF-8" standalone="no"?>
<svg xmlns="http://www.w3.org/2000/svg" xmlns:xlink="http://www.w3.org/1999/xlink" width="606" height="596" version="1.0">
  <defs>
    <linearGradient id="a">
      <stop offset="0" stop-color="#8957d4"/>
      <stop offset=".5" stop-color="#641bb1"/>
      <stop offset="1" stop-color="#22044c"/>
    </linearGradient>
    <linearGradient id="b" x1="387.8494" x2="387.8494" y1="112.3482" y2="345.2023" gradientTransform="matrix(1.2524 0 0 -1.2524 45.2803 433.292)" gradientUnits="userSpaceOnUse">
      <stop offset=".0056" stop-color="#ed0000"/>
      <stop offset=".5449" stop-color="#8d0000"/>
      <stop offset="1" stop-color="#bd0000"/>
    </linearGradient>
    <linearGradient id="c" x1="387.8494" x2="387.8494" y1="112.366" y2="345.2269" gradientTransform="matrix(1.2524 0 0 -1.2524 45.2803 433.292)" gradientUnits="userSpaceOnUse">
      <stop offset="0" stop-color="#002700"/>
      <stop offset=".5" stop-color="#008100"/>
      <stop offset="1" stop-color="#008100"/>
    </linearGradient>
    <linearGradient id="d" x1="387.85199" x2="387.85199" y1="116.5533" y2="339.98059" gradientTransform="matrix(1.2524 0 0 -1.2524 45.2803 433.292)" gradientUnits="userSpaceOnUse">
      <stop offset="0" stop-color="#00e000"/>
      <stop offset=".5" stop-color="#002000"/>
      <stop offset="1" stop-color="#4bf121"/>
    </linearGradient>
    <linearGradient xlink:href="#a" id="g" x1="29.753853" x2="202.58235" y1="-13.269632" y2="183.58783" gradientTransform="matrix(2.13315 0 0 2.04235 39.67581 137.14258)" gradientUnits="userSpaceOnUse"/>
    <linearGradient xlink:href="#b" id="h" x1="81.829529" x2="213.85634" y1="8.3764429" y2="243.56549" gradientUnits="userSpaceOnUse"/>
    <linearGradient xlink:href="#b" id="i" x1="81.829529" x2="213.85634" y1="8.3764429" y2="243.56549" gradientUnits="userSpaceOnUse"/>
    <linearGradient xlink:href="#c" id="j" x1="387.8494" x2="387.8494" y1="112.3482" y2="345.2023" gradientTransform="matrix(1.40434 0 0 -1.40434 -12.706899 318.10927)" gradientUnits="userSpaceOnUse"/>
    <linearGradient xlink:href="#c" id="k" x1="387.8494" x2="387.8494" y1="112.366" y2="345.2269" gradientTransform="matrix(1.40434 0 0 -1.40434 -12.706899 318.10927)" gradientUnits="userSpaceOnUse"/>
    <linearGradient xlink:href="#d" id="l" x1="387.85199" x2="387.85199" y1="116.5533" y2="339.98059" gradientTransform="matrix(1.40434 0 0 -1.40434 -12.706899 318.10927)" gradientUnits="userSpaceOnUse"/>
    <radialGradient id="e" cx="327.36911" cy="147.0332" r="69.963402" gradientTransform="matrix(1.7767 0 0 -1.7767 -50.6327 423.7937)" gradientUnits="userSpaceOnUse">
      <stop offset=".6011" stop-color="#fff"/>
      <stop offset=".8764" stop-color="#eaeaf0"/>
      <stop offset=".9142" stop-color="#e6e6ed"/>
      <stop offset=".95" stop-color="#dbdbe5"/>
      <stop offset=".9849" stop-color="#c8c8d7"/>
      <stop offset="1" stop-color="#bdbdcf"/>
    </radialGradient>
    <radialGradient xlink:href="#e" id="m" cx="327.36911" cy="147.0332" r="69.963402" gradientTransform="matrix(1.99225 0 0 -1.99225 -120.25616 309.24995)" gradientUnits="userSpaceOnUse"/>
    <filter id="f" color-interpolation-filters="sRGB">
      <feGaussianBlur stdDeviation="5.0924795"/>
    </filter>
  </defs>
  <g transform="translate(0 9)">
    <g transform="translate(-94.879505 -35.551444) scale(1.9963)">
      <path fill="#fdfcf8" fill-rule="evenodd" d="M191.65664 115.97593c5.27687 66.02591 16.7973 129.9439 51.19815 191.4892l13.00988.0971 82.29114-73.41929-78.43513-198.199613-56.54009 54.008439-11.52395 26.024184z"/>
      <path fill="#f4eed7" fill-rule="evenodd" d="M125.84082 116.04509c5.27687 66.02591 18.77829 130.78651 53.17914 192.33181l20.33475.18272 61.96822-77.71837-67.41807-194.828778-56.54009 54.008439-11.52395 26.024179z"/>
      <path fill="#e9ddaf" fill-rule="evenodd" d="M50.218883 114.63177c5.376652 69.28374 27.01509 131.34001 52.459127 191.70491l26.80214-.33096 70.40072-80.03768-81.59794-191.368884-56.540089 54.008439-11.523958 26.024175z"/>
      <g transform="translate(1.82723)">
        <path fill="#5f96d3" d="M261.5 16.5c-27.18692 26.301966-54.0625 52.375-54.0625 52.375l9.65625 19.65625c13.09357-12.981225 26.26128-24.397339 38.8125-37.09375 26.43326 58.0352 44.44408 104.81167 66.59843 166.64698 7.25271 20.08798 5.77391 20.98678-11.5625 31.84375-27.85476 13.85172-36.67281 22.93724-69.87108 58.25927h22.71875c27.75344-25.09151 38.05553-33.94669 72.80858-52.25927 12.29389-7.09788 13.97957-16.05857 8.9375-30C329.27475 180.73146 294.04485 83.322614 261.5 16.5z"/>
        <path fill="#2a62a1" fill-rule="evenodd" d="M190.625 17.125c-19.88757 13.424352-35.22867 32.744448-52.53125 49.3125l7.09375 22.625c13.54117-10.670666 25.32557-23.536457 37.5-35.71875l65.65625 164.6875c3.78574 11.15069-2.17642 21.0724-14.15625 31.875-14.34924 11.53271-43.89257 38.42056-57.28125 58.90625h20.375c21.38465-21.96593 25.2452-24.94746 49.59375-46.03125 16.34634-16.67844 31.114-25.22072 23.40625-46.59375L190.625 17.125z"/>
        <path fill="#15304f" fill-rule="evenodd" d="M123.5 16.0625c-5.30135 1.779198-9.71211 5.198015-13.84375 8.8125-56.088558 53.972012-58.34375 56.25-58.34375 56.25-2.951465 2.742742-3.197984 6.75235-3.15625 10.78125l.235404 22.72552s25.904224-25.181716 64.577096-62.41302c20.81842 54.23768 42.54552 108.18649 63.9375 162.21875 2.9295 8.16333-4.08223 14.8534-12.96875 23.78125-12.27355 11.97358-37.94466 36.62136-64.21875 69.53125h26.34375s63.31249-69.4375 63.3125-69.4375c6.01928-8.27793 13.50319-16.3712 10.34375-23.875 0 0-76.21875-198.374999-76.21875-198.375z"/>
      </g>
    </g>
    <g transform="translate(77.078711 136.34515) scale(.78253)">
      <path fill="#777" fill-opacity=".79729728" d="M382.99823 378.36142c-4.21444.21749-8.0347 2.54657-10.15847 6.19326L203.88439 676.09144c-2.2394 3.86491-2.24648 8.63102-.0186 12.50258 2.2279 3.87156 6.35223 6.26023 10.81904 6.26604l336.92888.52869c4.46863.0134 8.60458-2.35943 10.84845-6.22387 2.24387-3.86443 2.25436-8.63271.0275-12.50699L394.47843 384.59245c-2.35105-4.07005-6.78637-6.47738-11.4802-6.23103zm.60422 37.46171 146.41036 254.5282-293.65153-.45316 147.24117-254.07504z" filter="url(#f)" transform="matrix(1.76521 0 0 1.69007 -418.59706 -602.97779)"/>
      <path fill="url(#g)" stroke="#6b0002" stroke-linecap="round" stroke-linejoin="round" stroke-width="10.7952013" d="M234.12619 26.536341c-7.43937.367574-14.18291 4.303885-17.93183 10.467052L-82.04733 529.72136c-3.953011 6.53198-3.965509 14.58704-.03283 21.13026 3.932711 6.54321 11.213002 10.58023 19.097876 10.59005l594.750174.89353c7.88807.0226 15.18891-3.98761 19.14979-10.51879 3.9609-6.53116 3.97944-14.5899.0485-21.13771L254.39116 37.067227c-4.1501-6.878675-11.97937-10.947235-20.26497-10.530886h0zm1.06658 63.312968L493.63779 520.02017l-518.356575-.76588L235.19277 89.849309z"/>
      <path fill="url(#h)" stroke="url(#i)" stroke-linecap="round" stroke-linejoin="round" stroke-width="20.6877861" d="m230.71429 197.85715-278.829195-.44647L91.686339-43.839248z" transform="matrix(2.13315 0 0 2.04235 39.67581 137.14258)"/>
      <path fill="#fff" d="M234.24619 155.43911c-4.59743.23086-8.76483 2.7031-11.08163 6.57392L38.85571 471.4682c-2.44289 4.10241-2.45062 9.16147-.0203 13.27098 2.43036 4.10953 6.92947 6.64501 11.80219 6.65118l367.54666.56118c4.8747.0135 9.3865-2.50446 11.83427-6.60644 2.44778-4.10192 2.45922-9.16324.03-13.27566l-183.27891-310.0163c-2.5647-4.32023-7.40308-6.8755-12.52343-6.61403z"/>
      <path d="M198.29869 486.37524c-3.82692-.26365-6.6418-.71745-6.76249-1.0902-.11372-.35123-.55588-.63856-.9826-.63856-2.33898 0-2.72327-3.94915-3.07967-31.6467-.22813-17.7289-.53356-26.19123-.9556-26.47653-.34115-.23062-.9575-2.53744-1.36963-5.12626-.41213-2.58881-.93636-4.9717-1.16493-5.29531-.22856-.32359-.60066-1.91219-.82688-3.5302-.2262-1.61801-.61494-3.2066-.86384-3.53021-.24888-.32359-.77113-2.5741-1.16052-5.00111-.3894-2.42702-.89756-4.54514-1.12927-4.70694-.2317-.16181-.64977-1.86163-.92904-3.77739-.60736-4.16649-1.61847-4.79861-2.84426-1.77817-.49035 1.20826-1.2582 2.57433-1.70631 3.03568-.44809.46136-.81474 1.21706-.81474 1.67935 0 .46228-.21815.84053-.48479.84053-.26662 0-.90078.99287-1.40922 2.20637-.87159 2.08031-2.0389 4.19624-2.67781 4.85403-.15716.16181-1.05723 1.88278-2.00017 3.82439-.94294 1.94161-1.86361 3.66258-2.04595 3.82439-.18232.1618-.69515 1.15467-1.13958 2.20637-.44444 1.05171-.97458 1.9122-1.1781 1.9122-.20352 0-.53138.66191-.7286 1.47092-.19722.809-.59089 1.47092-.87485 1.47092-.28393 0-.81332.92667-1.17638 2.05928-.36307 1.13261-.89734 2.05929-1.18727 2.05929-.28992 0-.52717.36144-.52717.8032 0 .44177-.49838 1.45553-1.10752 2.25281-.60916.79729-1.27994 2.15682-1.49065 3.02119-.2107.86436-.5771 1.57158-.81419 1.57158-.23709 0-1.24672 1.65477-2.2436 3.67729-1.96397 3.98455-3.01386 5.86387-3.53345 6.32495-.18232.1618-.69516 1.15467-1.13959 2.20637-.44444 1.05171-1.00246 1.9122-1.24004 1.9122-.2376 0-.43198.37824-.43198.84053 0 .46227-.33231 1.19039-.73848 1.61801-.40615.42761-1.08028 1.63797-1.49802 2.68967-.41774 1.05171-.96508 1.9122-1.21629 1.9122-.25121 0-.62618.7943-.83329 1.7651-.2071.97081-.59663 1.76511-.86563 1.76511-.26901 0-.81455.92668-1.21235 2.05928-.3978 1.13261-.92878 2.05929-1.17994 2.05929-.25119 0-.45668.36144-.45668.8032 0 .44178-.49838 1.45552-1.10753 2.25281-.60916.7973-1.27526 2.13766-1.48027 2.97861-.205.84097-.73527 1.67223-1.17838 1.8473-.44309.17507-.80564.70168-.80564 1.17027 0 .46861-.19287.94025-.42861 1.04811-.23573.10786-1.0303 1.42919-1.76571 2.93626-1.98183 4.06141-3.86827 6.46228-7.00985 8.92144-1.56507 1.22512-4.56263 1.01951-5.9492-.40804-.47013-.484-1.34381-1.03983-1.94154-1.23515-.59774-.19533-1.23104-.74219-1.40737-1.21527-.17633-.47308-.6869-.86016-1.13461-.86016-.4477 0-.96203-.39714-1.14295-.88255-.18092-.4854-.71274-.88255-1.18184-.88255-1.28351 0-3.03265-2.21791-3.40418-4.31657-.34027-1.92209 1.01082-9.76102 1.78437-10.35276.62577-.47871 1.74916-2.37444 2.77653-4.68545.48851-1.09886 1.25483-2.37542 1.70294-2.83677.4481-.46136.81475-1.21706.81475-1.67936 0-.46229.21816-.84051.48479-.84051.26662 0 .90079-.99288 1.40922-2.20639.87159-2.0803 2.0389-4.19624 2.67781-4.85402.15715-.16181 1.05723-1.88278 2.00017-3.82439.94293-1.94161 1.86361-3.66259 2.04595-3.82439.18232-.16181.69515-1.15467 1.13959-2.20638.44444-1.0517.97458-1.9122 1.17808-1.9122.20353 0 .53139-.66191.7286-1.47091.19723-.809.59091-1.47092.87486-1.47092.28393 0 .81332-.92668 1.17638-2.05929.36307-1.13261.89734-2.05929 1.18728-2.05929.28992 0 .52716-.36143.52716-.8032 0-.44176.49838-1.45552 1.10752-2.25281.60916-.79728 1.27993-2.15682 1.49065-3.02118.2107-.86437.5771-1.57158.81419-1.57158.23709 0 1.24671-1.65478 2.2436-3.6773 1.96397-3.98455 3.01385-5.86386 3.53345-6.32494.18232-.16181.69516-1.15467 1.13959-2.20638.44444-1.0517 1.00246-1.9122 1.24005-1.9122.2376 0 .43197-.37823.43197-.84051 0-.46231.33231-1.1904.73848-1.61802.40616-.42762 1.08027-1.63797 1.49802-2.68968.41774-1.0517.96508-1.9122 1.21629-1.9122.2512 0 .62619-.79429.83329-1.76509.2071-.97081.59664-1.76511.86563-1.76511.26901 0 .81455-.92668 1.21235-2.05928.39779-1.13261.92878-2.05929 1.17995-2.05929.25118 0 .45667-.36144.45667-.8032 0-.44177.49839-1.45553 1.10753-2.25281.60915-.79729 1.27527-2.13766 1.48027-2.97861.20501-.84095.73528-1.67224 1.17838-1.8473.44309-.17505.80564-.70168.80564-1.17028 0-.46859.19287-.94024.42861-1.04811.23573-.10787 1.06258-1.49184 1.83745-3.07549.77487-1.58367 1.67793-3.17225 2.00683-3.53021 1.03095-1.12204 2.01336-3.87261 2.01336-5.63703 0-1.43529-.50321-2.00618-3.28599-3.72801-1.8073-1.11825-3.86462-2.21433-4.57182-2.43571-.70721-.2214-1.28583-.62842-1.28583-.90451 0-.27608-.77149-.67643-1.71443-.88965-.94294-.21322-1.71443-.57822-1.71443-.8111 0-.43203-3.33571-1.83655-4.36177-1.83655-.3113 0-1.17329.58248-1.91551 1.29441-2.30662 2.21245-4.57832 1.73946-7.79256-1.6225-1.53381-1.60429-3.49186-3.38157-4.35123-3.9495-.85936-.56794-1.72303-1.69117-1.91925-2.49608-.19623-.80491-.58605-1.46347-.86629-1.46347-.28025 0-.50952-.7943-.50952-1.76511 0-.9708.25715-1.7651.57147-1.7651.31431 0 .57148-.5567.57148-1.23711 0-1.11773 2.64486-6.87032 3.48892-7.5884.19018-.1618.66016-1.28705 1.0444-2.50056.38425-1.21351.87154-2.20698 1.0829-2.20773.21134-.00075 1.15453-1.65553 2.09594-3.6773.94142-2.02177 1.88539-3.81097 2.09774-3.97602.21235-.16505.56292-1.02553.77907-1.9122.21615-.88667.60496-1.61211.86401-1.61211.25906 0 .64695-.59572.86199-1.32383.21502-.7281 1.231-2.78003 2.25769-4.55984 1.02671-1.77981 2.05927-3.88558 2.29459-4.6795.23531-.79391.77968-1.80569 1.20967-2.24841.42999-.44271.78183-1.18315.78183-1.64545 0-.46227.21599-.84052.48-.84052.26399 0 .82071-1.06285 1.23712-2.36189.41644-1.29905 1.1005-2.65529 1.52017-3.01388.41967-.3586.76305-1.01672.76305-1.4625 0-.44577.216-.81051.48-.81051.26399 0 .8195-1.05905 1.23443-2.35346.41493-1.29441.94999-2.35347 1.18902-2.35347.23901 0 .60405-.7943.81115-1.7651.2071-.97081.61329-1.76511.90263-1.76511.28933 0 .52607-.3494.52607-.77644 0-.42705.7072-1.41992 1.57155-2.20638l1.57157-1.42993 34.75979-.1604 34.75984-.1604-.39428-1.89888c-.21688-1.0444-.68608-2.27142-1.04267-2.72673-.87085-1.1119-.89066-16.40988-.022-16.99189.34451-.23081.79493-1.12925 1.00095-1.99652.20602-.86729.75995-1.97362 1.23094-2.45854.47098-.48493.85636-1.0828.85636-1.32861 0-.90762 6.92492-7.28084 8.29611-7.63515.78044-.20167 1.41901-.58651 1.41901-.85521 0-.26869 1.15724-.6672 2.57164-.88557 1.41441-.21837 2.57165-.63174 2.57165-.9186 0-.68027 6.6944-.68129 7.10271-.001.17183.28627 1.47285.69963 2.89111.91861 1.4183.21897 2.57868.58203 2.57868.80681 0 .22478.83579.7863 1.8573 1.24784 2.03808.92083 7.44363 6.19551 8.02666 7.83233.20172.56631.61156 1.02965.91077 1.02965.2992 0 .72533.86049.94695 1.91219.2216 1.05171.69208 2.10099 1.04549 2.33175.87311.57009.8794 15.85809.007 16.99303-.34954.45474-.80449 1.55491-1.01097 2.44481-.20649.88991-.62769 1.61802-.93601 1.61802-.30833 0-.5606.37465-.5606.83257 0 1.1399-2.54547 4.18989-6.17975 7.40457-.54875.48541-2.27591 1.54052-3.83812 2.34471-2.49209 1.28288-3.59362 1.46323-8.98371 1.47091l-6.14335.009.33276 3.5302c.18303 1.94161.57394 8.03121.86869 13.53245.29477 5.50123.91128 16.35662 1.37004 24.12306 2.08334 35.26932 2.7801 55.38076 2.01595 58.19069-.40465 1.48793-1.02375 2.71132-1.37578 2.71863-1.03638.0215 5.49899 4.02758 7.21773 4.42435.86436.19953 1.57157.60148 1.57157.8932 0 .29173.64291.69654 1.42869.89959.78578.20305 1.42869.56286 1.42869.79959 0 .23671 1.03234.78118 2.29409 1.20989 1.26177.42872 2.57907 1.13301 2.92736 1.56509s.98753.78561 1.42051.78561c.43298 0 .78725.22238.78725.49419s1.00125.83441 2.22499 1.25022c2.18619.74282 3.48978.5104 3.48978-.62223 0-.31542.72214-1.30026 1.60475-2.18854.88262-.88828 1.77464-2.0708 1.98224-2.62782.20763-.55702.62539-1.01276.92838-1.01276s.70573-.50223.89496-1.11605c.18921-.61384 1.23521-2.0889 2.32441-3.27792 1.08919-1.18902 1.98767-2.34158 1.99659-2.56124.009-.21966 1.03758-1.58123 2.28591-3.02571 1.24833-1.4445 2.26969-2.84715 2.26969-3.11703 0-.42408 1.29874-1.76449 3.82164-3.94432 1.60808-1.38936 6.66468-1.75672 24.18075-1.75672 21.15157 0 23.08237.25259 25.88672 3.38662.37786.42225 1.39417 1.55663 2.25853 2.52084.86437.96421 1.57157 1.98097 1.57157 2.25945 0 .27847.63845 1.12984 1.4188 1.8919.78036.76207 1.42327 1.55694 1.4287 1.76636.009.36073 1.59945 2.39074 4.42054 5.64351.69715.80383 1.41412 1.93706 1.59334 2.51829.17916.58124.70172 1.20531 1.16124 1.38685.45947.18155.83544.61751.83544.96881 0 .35131.7703 1.48487 1.71181 2.51903.94145 1.03417 1.71295 2.0402 1.71443 2.23565.001.19545.65285 1.12212 1.44755 2.05929.79476.93716 1.63826 1.96868 1.87456 2.29229.23625.3236 1.19331 1.64719 2.12681 2.94131 2.71109 3.75862 2.79047 3.85944 3.84021 4.87962.55005.53456 1.00009 1.29706 1.00009 1.69447 0 .39741.33563.93429.74584 1.19306.41026.25878 1.50321 1.52958 2.42877 2.82399.92563 1.2944 1.87582 2.44172 2.11155 2.54959.23574.10788.42861.56189.42861 1.00894 0 .44705.5113 1.09454 1.13621 1.43887.62491.34435 1.28743 1.24638 1.47224 2.00457.18482.75818.9594 1.72196 1.72118 2.14172.76183.41978 1.38515 1.11562 1.38515 1.54634 0 .4307.51432 1.31266 1.14295 1.95986.62862.64721 1.14741 1.37532 1.15285 1.61801.005.2427.64833 1.06479 1.42869 1.82686.78035.76206 1.4188 1.61343 1.4188 1.89191 0 .27846.76709 1.37594 1.70466 2.4388 2.91316 3.30247 3.43829 3.97754 3.44853 4.43304.005.24271.64832 1.0648 1.42868 1.82686.78035.76206 1.41881 1.6352 1.41881 1.9403 0 .30508.64291 1.16814 1.42869 1.9179.78578.74977 1.4287 1.66155 1.4287 2.0262 0 .36466.51432.99371 1.14295 1.39789.62862.40419 1.14295 1.07009 1.14295 1.4798 0 .40972.64291 1.32044 1.42869 2.02386.78579.70342 1.4287 1.51633 1.4287 1.80647 0 .29014.75532 1.30515 1.67842 2.25559.92317.95044 1.84056 2.25388 2.0387 2.89657.19813.64268.56513 1.16851.81549 1.16851.25037 0 1.1933 1.12526 2.09532 2.50057.90202 1.37531 2.22282 3.08364 2.93511 3.79629 1.55573 1.55657 1.62568 2.24182.29494 2.88956-1.12512.54765-191.5965 1.08881-193.68061.55027-2.25674-.58314-1.84008-1.56283 3.07465-7.22965.69714-.80381 1.42168-1.96151 1.61008-2.57263.18839-.61111.53779-1.11114.77644-1.11114.23864 0 1.55172-1.58859 2.91794-3.5302 1.36622-1.94161 2.67929-3.53021 2.91794-3.53021.23864 0 .596-.52583.79413-1.16851.19814-.64269 1.11553-1.94614 2.03867-2.89658.92317-.95042 1.67847-1.96545 1.67847-2.25558 0-.29014.64291-1.10306 1.42869-1.80647.78577-.70342 1.42869-1.61416 1.42869-2.02386 0-.40969.51433-1.07562 1.14296-1.4798.62862-.40418 1.14295-1.03323 1.14295-1.39789 0-.36465.64291-1.27644 1.42869-2.0262.78579-.74976 1.4287-1.61282 1.4287-1.91791 0-.30509.63847-1.17821 1.41881-1.94029.78035-.76208 1.42327-1.55693 1.42869-1.76636.009-.36073 1.59946-2.39074 4.42054-5.64351.69714-.80381 1.42168-1.96151 1.61007-2.57263.1884-.61112.5378-1.11114.77645-1.11114.23864 0 1.55171-1.58859 2.91793-3.5302 1.36622-1.94161 2.6793-3.53021 2.91795-3.53021.23864 0 .596-.52583.79413-1.16852.19814-.64268 1.11553-1.94614 2.03867-2.89657.92317-.95043 1.67846-2.01096 1.67846-2.35671 0-.34574.51433-.95933 1.14296-1.36351 1.83556-1.18022 1.39227-2.54214-1.07517-3.30325-1.21997-.37631-2.53728-1.08013-2.92736-1.56404-.39006-.48392-1.0635-.87985-1.49648-.87985-.43299 0-.78724-.22239-.78724-.49419 0-.27181-1.02867-.84371-2.28592-1.27091s-2.2859-.97807-2.2859-1.22416c0-.24609-.7715-.62191-1.71444-.83512-.94293-.21323-1.71442-.63142-1.71442-.92931 0-.29788-.3065-.54162-.68111-.54162s-2.38418-1.04167-4.46571-2.31483c-2.08152-1.27317-4.47526-2.49332-5.3194-2.71144-.84413-.21813-1.53481-.63266-1.53481-.92118 0-.28853-.36738-.52459-.81639-.52459-.44902 0-1.16514-.33096-1.59137-.73546-.42624-.4045-2.30904-1.52975-4.18403-2.50055-1.87497-.97081-3.53765-1.92531-3.6948-2.12113-.15716-.19579-1.25011-.67967-2.42878-1.07527-1.17868-.39558-2.14304-.94245-2.14304-1.21525 0-.27278-.7715-.67044-1.71443-.88366-.94294-.21323-1.71444-.58422-1.71444-.82443 0-.24021-1.66798-1.21204-3.70662-2.15963-2.03867-.94759-3.71022-1.90092-3.71461-2.11853-.004-.2176-.97234-.71931-2.15101-1.1149-1.17867-.3956-2.30555-.97691-2.50419-1.29182-.45131-.71547-2.78198 1.6032-2.78198 2.76764 0 .4663.22501.99099.49999 1.16598.27501.17496.82077 2.44111 1.21282 5.03584.39207 2.59475.90893 4.71771 1.1486 4.71771.23968 0 .61876 1.52239.84243 3.38311.22367 1.86071.60524 3.64787.84796 3.97148.24272.32359.7786 2.77268 1.19084 5.44239.41225 2.66972.94188 4.85404 1.17694 4.85404.23507 0 .60453 1.4597.82104 3.24379.21651 1.78409.62076 3.3883.89834 3.56493.2802.17829.50469 12.48505.50469 27.67009 0 25.24587-.0769 27.43142-1.00009 28.4213-1.34475 1.44192-3.26944 2.42761-4.53425 2.32213-.5707-.0476-3.98774-.28978-7.5934-.53818h.00001zm30.27204-103.48158c0-3.54053-.22685-6.58167-.50409-6.75808-.27728-.17642-.69334-6.68247-.9246-14.45788-.23126-7.77541-.64734-14.28145-.92459-14.45787-.27724-.17643-.5041-1.49658-.5041-2.93369 0-3.37064-.9552-3.35256-1.83515.0347-.3783 1.45621-.87121 2.64766-1.09536 2.64766-.22416 0-.57699.7943-.7841 1.7651-.2071.97081-.58275 1.7651-.83477 1.7651s-.76496 1.25412-1.13984 2.78694c-.37492 1.53281-.85546 2.92282-1.06794 3.08893-.53077.41493-2.15183 3.95843-3.03161 6.62694-.40008 1.21351-.93294 2.20638-1.1841 2.20638-.25119 0-.45668.27929-.45668.62064 0 .34136-.49553 1.74056-1.10119 3.10934-.60566 1.36879-1.27643 3.20761-1.49064 4.08629-.21419.87868-.60709 1.59761-.87309 1.59761-.26599 0-.65249.92667-.85887 2.05928-.20638 1.13261-.62214 2.05929-.92393 2.05929-.87538 0 .8898 1.56895 2.27412 2.02131.69255.2263 1.25917.62397 1.25917.88371 0 .25973 1.15724.80584 2.57164 1.21355 1.41441.40771 2.57165.96661 2.57165 1.24199 0 .27538.64292.66682 1.42869.86987.78579.20305 1.4287.5847 1.4287.84813 0 .26343.90008.78479 2.00017 1.15858 1.1001.37379 2.00017.90445 2.00017 1.17922 0 .51874 1.27338.98815 3.00026 1.106.89556.0611 1.00008-.60453 1.00008-6.36906zm-60.63264-29.03224c.6135-1.38653 1.29072-3.23988 1.50492-4.11857.2142-.87867.6071-1.5976.87309-1.5976.26599 0 .65249-.92668.85887-2.05928.20638-1.13261.60378-2.05929.88311-2.05929.27934 0 .50788-.25692.50788-.57092 0-.31402.64291-2.01803 1.42869-3.7867.78578-1.76866 1.4287-3.49748 1.4287-3.84182 0-.34435.23339-.62606.51866-.62606.28526 0 .84821-1.32384 1.25099-2.94184.40279-1.61802.92044-2.94184 1.15036-2.94184.2299 0 .58749-.7943.79458-1.76511.20711-.9708.57987-1.7651.82835-1.7651.24852 0 .77581-1.19144 1.17182-2.64765.39601-1.45621.92333-2.64765 1.17182-2.64765.24848 0 .62126-.7943.82836-1.7651.2071-.97081.58114-1.76511.83119-1.76511.25003 0 .60917-.7281.79805-1.61801.18887-.8899.50818-2.21373.70956-2.94184l.36616-1.32382h-8.97806c-8.49744 0-8.99405.063-9.27694 1.17673-.16438.64721-.50563 1.17674-.75832 1.17674-.25268 0-.62886.7943-.83596 1.7651-.20711.97081-.59596 1.7651-.86412 1.7651-.26815 0-.66349.59572-.87853 1.32383-.21502.7281-1.24025 2.78003-2.27826 4.55985-1.03801 1.77981-2.06452 3.96413-2.28113 4.85403-.21661.8899-.60582 1.61801-.86487 1.61801s-.65158.59572-.87228 1.32382c-.22072.72811-.55949 1.45621-.75287 1.61802-.19337.1618-1.12308 1.88277-2.06601 3.82438-.94294 1.94162-1.85762 3.66259-2.03262 3.82439-.175.1618-.67472 1.22086-1.11051 2.35347-.43578 1.1326-.96513 2.19167-1.17634 2.35347-.21124.1618-.56027.87582-.77566 1.58671-.34286 1.13157.0212 1.49184 2.92322 2.89288 1.8232.88018 3.44345 1.78525 3.60061 2.01128.15715.22601.92864.61469 1.71442.86372.78579.24904 1.55945.61567 1.71927.81476.37285.46448 5.86238 3.51529 6.41001 3.56238.22786.0196.91628-1.09882 1.52979-2.48535v-.00001z"/>
    </g>
    <g transform="translate(20.681966 131.89582) scale(.80712)">
      <path fill="url(#j)" d="M377.88475 14.530669c0 84.95016 69.11375 154.066141 154.06615 154.066141 84.94791 0 154.06165-69.115981 154.06165-154.066141 0-84.951278-69.11374-154.066139-154.06165-154.066139-84.9524 0-154.06615 69.114861-154.06615 154.066139z"/>
      <path fill="url(#k)" d="M387.15135 14.530669c0 79.84254 64.95701 144.798421 144.79955 144.798421 79.84029 0 144.79281-64.955881 144.79281-144.798421 0-79.842539-64.95252-144.799539-144.79281-144.799539-79.84254 0-144.79955 64.957-144.79955 144.799539z"/>
      <path fill="url(#l)" d="M392.04143 14.530669c0 77.14913 62.76707 139.902741 139.90947 139.902741 77.14688 0 139.90946-62.753611 139.90946-139.902741 0-77.142398-62.76258-139.907219-139.90946-139.907219-77.1424 0-139.90947 62.765942-139.90947 139.907219z"/>
      <path fill="#fff" d="M531.9509-111.36604c-70.26086 0-127.42917 57.154853-127.42917 127.424679 0 70.25973 57.16831 127.413461 127.42917 127.413461 70.26309 0 127.42467-57.153731 127.42467-127.413461 0-70.269826-57.16158-127.424679-127.42467-127.424679z" enable-background="new" opacity=".8"/>
      <path d="M404.52173 16.321989c0 70.26534 57.16831 127.413461 127.42917 127.413461 70.26309 0 127.42467-57.148121 127.42467-127.413461 0-70.260853-57.16158-127.423559-127.42467-127.423559-70.26086 0-127.42917 57.162706-127.42917 127.423559z"/>
      <path fill="url(#m)" d="M407.64349 16.321989c0 68.53963 55.76217 124.299561 124.30741 124.299561 68.54298 0 124.30852-55.759931 124.30852-124.299561 0-68.539624-55.76554-124.305159-124.30852-124.305159-68.54524.001-124.30741 55.765535-124.30741 124.305159z"/>
      <path fill="#002700" d="M439.7727 6.9983587h-21.84221c-1.38259 0-2.50391 1.12133-2.50391 2.50504v3.1139003c0 1.38371 1.12132 2.50503 2.50391 2.50503h21.84221c1.38371 0 2.50503-1.12132 2.50503-2.50503V9.5033987c-.001-1.38371-1.12132-2.50504-2.50503-2.50504zm205.52469 0H623.4462c-1.38258 0-2.50503 1.12133-2.50503 2.50504v3.1139003c0 1.38371 1.12245 2.50503 2.50503 2.50503h21.85119c1.38259 0 2.50503-1.12132 2.50503-2.50503V9.5033987c0-1.38371-1.12244-2.50504-2.50503-2.50504zM533.51177 100.05567h-3.12063c-1.38259 0-2.50503 1.12132-2.50503 2.50503v21.84334c0 1.38371 1.12244 2.50503 2.50503 2.50503h3.12063c1.38371 0 2.50504-1.12132 2.50504-2.50503V102.5607c0-1.38371-1.12133-2.50503-2.50504-2.50503zm0-205.5202h-3.12063c-1.38259 0-2.50503 1.12132-2.50503 2.50503v21.842215c0 1.38371 1.12244 2.505031 2.50503 2.505031h3.12063c1.38371 0 2.50504-1.121321 2.50504-2.505031V-102.9595c0-1.38259-1.12133-2.50503-2.50504-2.50503z"/>
      <path fill="#008100" d="M417.92937 12.617299h21.84221V9.5033987h-21.84221v3.1139003zM623.4462 9.5022687v3.1139103h21.85119V9.5022687H623.4462zM530.39002 124.40292h3.12063v-21.84334h-3.12063v21.84334zm0-205.519083h3.12063V-102.9595h-3.12063v21.843337z"/>
      <path fill="none" stroke="#e0e0e0" stroke-linecap="round" stroke-linejoin="round" stroke-width="22.42642021" d="m459.70755-68.970014 71.40796 83.596723"/>
      <path fill="none" stroke="#bfbfbf" stroke-linecap="round" stroke-linejoin="round" stroke-width="22.42642021" d="m511.07078-93.474242 20.04249 108.100951"/>
      <path fill="none" stroke="gray" stroke-linecap="round" stroke-linejoin="round" stroke-width="22.42642021" d="M567.80738-89.013627 531.11439 14.626709"/>
      <path fill="none" stroke="#000" stroke-linecap="round" stroke-linejoin="round" stroke-width="22.42642021" d="m452.04444-13.369311 79.07107 27.99602 83.59448-71.407964"/>
    </g>
  </g>
</svg>